<svg width="1319" height="494" viewBox="0 0 1319 494" fill="none" xmlns="http://www.w3.org/2000/svg">
<mask id="path-1-inside-1" fill="white">
<path fill-rule="evenodd" clip-rule="evenodd" d="M15 0C6.71573 0 0 6.71572 0 15V423C0 431.284 6.71575 438 15 438H297.253L297.253 493.892L360.787 438H1304C1312.28 438 1319 431.284 1319 423V15C1319 6.71573 1312.28 0 1304 0H15Z"/>
</mask>
<path d="M297.253 438H298.253V437H297.253V438ZM297.253 493.892H296.253V496.104L297.914 494.643L297.253 493.892ZM360.787 438V437H360.409L360.126 437.249L360.787 438ZM1 15C1 7.26801 7.26801 1 15 1V-1C6.16344 -1 -1 6.16344 -1 15H1ZM1 423V15H-1V423H1ZM15 437C7.26803 437 1 430.732 1 423H-1C-1 431.837 6.16347 439 15 439V437ZM297.253 437H15V439H297.253V437ZM298.253 493.892L298.253 438H296.253L296.253 493.892H298.253ZM360.126 437.249L296.593 493.141L297.914 494.643L361.447 438.751L360.126 437.249ZM1304 437H360.787V439H1304V437ZM1318 423C1318 430.732 1311.73 437 1304 437V439C1312.84 439 1320 431.837 1320 423H1318ZM1318 15V423H1320V15H1318ZM1304 1C1311.73 1 1318 7.26801 1318 15H1320C1320 6.16345 1312.84 -1 1304 -1V1ZM15 1H1304V-1H15V1Z" fill="#C9D4FA" mask="url(#path-1-inside-1)"/>
</svg>
