<svg width="43" height="32" viewBox="0 0 43 32" fill="none" xmlns="http://www.w3.org/2000/svg">
<path d="M1.40266 8.00337e-05C0.628298 8.00337e-05 0 0.537599 0 1.20008C0 1.86256 0.628298 2.40007 1.40266 2.40007H6.80852L11.6299 21.8624C11.8199 22.5952 12.3824 23.2046 13.091 23.2H36.4687C37.2102 23.2093 37.8915 22.6343 37.8915 21.9999C37.8915 21.3656 37.2103 20.7906 36.4687 20.7999H14.2309L13.6319 18.3999H38.3393C38.9676 18.3953 39.5611 17.9875 39.6981 17.4625L42.971 5.46247C43.1536 4.76559 42.4469 4.00467 41.6122 3.99999H10.0813L9.32152 0.949992C9.1882 0.417199 8.5855 0 7.94808 0L1.40266 8.00337e-05ZM10.6658 6.40007H17.9713L18.6727 10.0001H11.557L10.6658 6.40007ZM20.8352 6.40007H29.6602L28.9589 10.0001H21.5364L20.8352 6.40007ZM32.5239 6.40007H39.8439L38.865 10.0001H31.8227L32.5239 6.40007ZM12.1564 12.4001H19.1407L19.8421 16.0001H13.048L12.1564 12.4001ZM22.004 12.4001H28.4913L27.7899 16.0001H22.7053L22.004 12.4001ZM31.3551 12.4001H38.2076L37.2287 16.0001H30.6538L31.3551 12.4001ZM17.7671 24C15.201 24 13.0915 25.8047 13.0915 28C13.0915 30.1953 15.201 32 17.7671 32C20.3331 32 22.4426 30.1953 22.4426 28C22.4426 25.8047 20.3331 24 17.7671 24ZM31.7936 24C29.2276 24 27.1181 25.8047 27.1181 28C27.1181 30.1953 29.2276 32 31.7936 32C34.3597 32 36.4692 30.1953 36.4692 28C36.4692 25.8047 34.3597 24 31.7936 24ZM17.7671 26.4C18.8172 26.4 19.6373 27.1016 19.6373 28C19.6373 28.8984 18.8172 29.6 17.7671 29.6C16.7168 29.6 15.8968 28.8984 15.8968 28C15.8968 27.1016 16.7168 26.4 17.7671 26.4ZM31.7936 26.4C32.8438 26.4 33.6639 27.1016 33.6639 28C33.6639 28.8984 32.8438 29.6 31.7936 29.6C30.7435 29.6 29.9234 28.8984 29.9234 28C29.9234 27.1016 30.7435 26.4 31.7936 26.4Z" fill="#C9D4FA"/>
</svg>
