<svg width="33" height="24" viewBox="0 0 33 24" fill="none" xmlns="http://www.w3.org/2000/svg">
<path d="M1.05199 6.00253e-05C0.471224 6.00253e-05 0 0.403199 0 0.900057C0 1.39692 0.471224 1.80005 1.05199 1.80005H5.10639L8.72245 16.3968C8.86491 16.9464 9.28681 17.4034 9.81828 17.4H27.3516C27.9076 17.407 28.4186 16.9757 28.4186 16.5C28.4186 16.0242 27.9077 15.5929 27.3516 15.5999H10.6732L10.2239 13.7999H28.7545C29.2257 13.7965 29.6708 13.4906 29.7736 13.0969L32.2282 4.09685C32.3652 3.57419 31.8351 3.0035 31.2091 2.99999H7.56098L6.99114 0.712494C6.89115 0.3129 6.43912 0 5.96106 0L1.05199 6.00253e-05ZM7.99937 4.80005H13.4785L14.0045 7.50004H8.66774L7.99937 4.80005ZM15.6264 4.80005H22.2452L21.7192 7.50004H16.1523L15.6264 4.80005ZM24.393 4.80005H29.883L29.1488 7.50004H23.867L24.393 4.80005ZM9.11729 9.30006H14.3555L14.8815 12.0001H9.78601L9.11729 9.30006ZM16.503 9.30006H21.3685L20.8425 12.0001H17.029L16.503 9.30006ZM23.5164 9.30006H28.6557L27.9215 12.0001H22.9903L23.5164 9.30006ZM13.3253 18C11.4008 18 9.81863 19.3535 9.81863 21C9.81863 22.6465 11.4008 24 13.3253 24C15.2498 24 16.8319 22.6465 16.8319 21C16.8319 19.3535 15.2498 18 13.3253 18ZM23.8452 18C21.9207 18 20.3386 19.3535 20.3386 21C20.3386 22.6465 21.9207 24 23.8452 24C25.7698 24 27.3519 22.6465 27.3519 21C27.3519 19.3535 25.7698 18 23.8452 18ZM13.3253 19.8C14.1129 19.8 14.7279 20.3262 14.7279 21C14.7279 21.6738 14.1129 22.2 13.3253 22.2C12.5376 22.2 11.9226 21.6738 11.9226 21C11.9226 20.3262 12.5376 19.8 13.3253 19.8ZM23.8452 19.8C24.6329 19.8 25.2479 20.3262 25.2479 21C25.2479 21.6738 24.6329 22.2 23.8452 22.2C23.0576 22.2 22.4426 21.6738 22.4426 21C22.4426 20.3262 23.0576 19.8 23.8452 19.8Z" fill="#C9D4FA"/>
</svg>
