<svg width="53" height="44" viewBox="0 0 53 44" fill="none" xmlns="http://www.w3.org/2000/svg">
<path d="M1.72886 0.000110046C0.774414 0.000110046 0 0.739198 0 1.6501C0 2.56102 0.774414 3.30009 1.72886 3.30009H8.3919L14.3346 30.0609C14.5687 31.0684 15.262 31.9063 16.1355 31.9H44.9498C45.8637 31.9128 46.7035 31.1221 46.7035 30.2499C46.7035 29.3777 45.8639 28.587 44.9498 28.5999H17.5404L16.8021 25.2999H47.2554C48.0299 25.2936 48.7614 24.7328 48.9302 24.0109L52.9642 7.51089C53.1893 6.55268 52.3182 5.50642 51.2894 5.49998H12.4258L11.4893 1.30624C11.325 0.573649 10.5821 0 9.79647 0L1.72886 0.000110046ZM13.1463 8.8001H22.1507L23.0152 13.7501H14.2447L13.1463 8.8001ZM25.6806 8.8001H36.558L35.6935 13.7501H26.5449L25.6806 8.8001ZM40.0876 8.8001H49.11L47.9034 13.7501H39.2234L40.0876 8.8001ZM14.9835 17.0501H23.592L24.4565 22.0001H16.0824L14.9835 17.0501ZM27.1212 17.0501H35.1172L34.2527 22.0001H27.9856L27.1212 17.0501ZM38.647 17.0501H47.0931L45.8865 22.0001H37.7826L38.647 17.0501ZM21.899 33.0001C18.7361 33.0001 16.136 35.4815 16.136 38.5C16.136 41.5186 18.7361 44 21.899 44C25.0617 44 27.6618 41.5186 27.6618 38.5C27.6618 35.4815 25.0617 33.0001 21.899 33.0001ZM39.1874 33.0001C36.0247 33.0001 33.4247 35.4815 33.4247 38.5C33.4247 41.5186 36.0247 44 39.1874 44C42.3503 44 44.9504 41.5186 44.9504 38.5C44.9504 35.4815 42.3503 33.0001 39.1874 33.0001ZM21.899 36.3C23.1933 36.3 24.2041 37.2647 24.2041 38.5C24.2041 39.7353 23.1933 40.7001 21.899 40.7001C20.6045 40.7001 19.5938 39.7353 19.5938 38.5C19.5938 37.2647 20.6045 36.3 21.899 36.3ZM39.1874 36.3C40.482 36.3 41.4927 37.2647 41.4927 38.5C41.4927 39.7353 40.482 40.7001 39.1874 40.7001C37.8931 40.7001 36.8824 39.7353 36.8824 38.5C36.8824 37.2647 37.8931 36.3 39.1874 36.3Z" fill="#C9D4FA"/>
</svg>
