<svg width="38" height="28" viewBox="0 0 38 28" fill="none" xmlns="http://www.w3.org/2000/svg">
<path d="M1.22732 7.00295e-05C0.549761 7.00295e-05 0 0.470399 0 1.05007C0 1.62974 0.549761 2.10006 1.22732 2.10006H5.95746L10.1762 19.1296C10.3424 19.7708 10.8346 20.304 11.4547 20.3H31.9101C32.5589 20.3081 33.1551 19.805 33.1551 19.2499C33.1551 18.6949 32.559 18.1917 31.9101 18.1999H12.452L11.9279 16.0999H33.5469C34.0967 16.0959 34.616 15.739 34.7359 15.2797L37.5996 4.77966C37.7594 4.16989 37.141 3.50408 36.4107 3.49999H8.82114L8.15633 0.831243C8.03967 0.365049 7.51231 0 6.95457 0L1.22732 7.00295e-05ZM9.3326 5.60006H15.7249L16.3386 8.75004H10.1124L9.3326 5.60006ZM18.2308 5.60006H25.9527L25.339 8.75004H18.8444L18.2308 5.60006ZM28.4584 5.60006H34.8634L34.0069 8.75004H27.8449L28.4584 5.60006ZM10.6368 10.8501H16.7481L17.3618 14.0001H11.417L10.6368 10.8501ZM19.2535 10.8501H24.9299L24.3162 14.0001H19.8672L19.2535 10.8501ZM27.4358 10.8501H33.4316L32.5751 14.0001H26.8221L27.4358 10.8501ZM15.5462 21C13.3009 21 11.4551 22.5791 11.4551 24.5C11.4551 26.4209 13.3009 28 15.5462 28C17.7914 28 19.6372 26.4209 19.6372 24.5C19.6372 22.5791 17.7914 21 15.5462 21ZM27.8194 21C25.5742 21 23.7284 22.5791 23.7284 24.5C23.7284 26.4209 25.5742 28 27.8194 28C30.0647 28 31.9105 26.4209 31.9105 24.5C31.9105 22.5791 30.0647 21 27.8194 21ZM15.5462 23.1C16.4651 23.1 17.1826 23.7139 17.1826 24.5C17.1826 25.2861 16.4651 25.9 15.5462 25.9C14.6272 25.9 13.9097 25.2861 13.9097 24.5C13.9097 23.7139 14.6272 23.1 15.5462 23.1ZM27.8194 23.1C28.7384 23.1 29.4559 23.7139 29.4559 24.5C29.4559 25.2861 28.7384 25.9 27.8194 25.9C26.9005 25.9 26.183 25.2861 26.183 24.5C26.183 23.7139 26.9005 23.1 27.8194 23.1Z" fill="#C9D4FA"/>
</svg>
