<svg width="23" height="31" viewBox="0 0 23 31" fill="none" xmlns="http://www.w3.org/2000/svg">
<path d="M17.1352 7.41304C17.1352 11.062 14.5109 13.8261 11.5 13.8261C8.48908 13.8261 5.86475 11.062 5.86475 7.41304C5.86475 3.76409 8.48908 1 11.5 1C14.5109 1 17.1352 3.76409 17.1352 7.41304Z" fill="#C9D4FA" stroke="#C9D4FA" stroke-width="2"/>
<mask id="path-2-inside-1" fill="white">
<path fill-rule="evenodd" clip-rule="evenodd" d="M-0.000366211 31.0001H22.9996C22.9153 22.047 17.7989 14.8262 11.4996 14.8262C5.20037 14.8262 0.0839384 22.047 -0.000366211 31.0001Z"/>
</mask>
<path fill-rule="evenodd" clip-rule="evenodd" d="M-0.000366211 31.0001H22.9996C22.9153 22.047 17.7989 14.8262 11.4996 14.8262C5.20037 14.8262 0.0839384 22.047 -0.000366211 31.0001Z" fill="#C9D4FA"/>
<path d="M-0.000366211 31.0001L-2.00028 30.9813L-2.01929 33.0001H-0.000366211V31.0001ZM22.9996 31.0001V33.0001H25.0185L24.9995 30.9813L22.9996 31.0001ZM-0.000366211 33.0001H22.9996V29.0001H-0.000366211V33.0001ZM11.4996 16.8262C13.8265 16.8262 16.1335 18.1567 17.9497 20.7138C19.7623 23.2658 20.9609 26.9 20.9997 31.0189L24.9995 30.9813C24.954 26.147 23.5523 21.6943 21.2108 18.3976C18.8729 15.106 15.472 12.8262 11.4996 12.8262V16.8262ZM1.99955 31.0189C2.03833 26.9 3.23699 23.2658 5.04959 20.7138C6.8658 18.1567 9.17274 16.8262 11.4996 16.8262V12.8262C7.52727 12.8262 4.12636 15.106 1.78846 18.3976C-0.553049 21.6943 -1.95476 26.147 -2.00028 30.9813L1.99955 31.0189Z" fill="#C9D4FA" mask="url(#path-2-inside-1)"/>
</svg>
