<svg width="28" height="38" viewBox="0 0 28 38" fill="none" xmlns="http://www.w3.org/2000/svg">
<path d="M21.0777 9.08696C21.0777 13.6672 17.8015 17.1739 14 17.1739C10.1986 17.1739 6.92236 13.6672 6.92236 9.08696C6.92236 4.50672 10.1986 1 14 1C17.8015 1 21.0777 4.50672 21.0777 9.08696Z" fill="#C9D4FA" stroke="#C9D4FA" stroke-width="2"/>
<mask id="path-2-inside-1" fill="white">
<path fill-rule="evenodd" clip-rule="evenodd" d="M-0.000488281 37.9999H27.9995C27.8969 27.0251 21.6682 18.1738 13.9995 18.1738C6.33085 18.1738 0.102144 27.0251 -0.000488281 37.9999Z"/>
</mask>
<path fill-rule="evenodd" clip-rule="evenodd" d="M-0.000488281 37.9999H27.9995C27.8969 27.0251 21.6682 18.1738 13.9995 18.1738C6.33085 18.1738 0.102144 27.0251 -0.000488281 37.9999Z" fill="#C9D4FA"/>
<path d="M-0.000488281 37.9999L-2.0004 37.9812L-2.01928 39.9999H-0.000488281V37.9999ZM27.9995 37.9999V39.9999H30.0183L29.9994 37.9812L27.9995 37.9999ZM-0.000488281 39.9999H27.9995V35.9999H-0.000488281V39.9999ZM13.9995 20.1738C17.0049 20.1738 19.932 21.9055 22.2025 25.1242C24.4687 28.3369 25.9516 32.886 25.9996 38.0186L29.9994 37.9812C29.9448 32.139 28.262 26.7751 25.4711 22.8185C22.6843 18.8678 18.6628 16.1738 13.9995 16.1738V20.1738ZM1.99942 38.0186C2.04742 32.886 3.53035 28.3369 5.79657 25.1242C8.06699 21.9055 10.9941 20.1738 13.9995 20.1738V16.1738C9.33623 16.1738 5.31468 18.8678 2.52793 22.8185C-0.263023 26.7751 -1.94577 32.139 -2.0004 37.9812L1.99942 38.0186Z" fill="#C9D4FA" mask="url(#path-2-inside-1)"/>
</svg>
