<svg width="21" height="28" viewBox="0 0 21 28" fill="none" xmlns="http://www.w3.org/2000/svg">
<path d="M15.3801 6.69565C15.3801 9.9484 13.0433 12.3913 10.387 12.3913C7.73077 12.3913 5.39392 9.9484 5.39392 6.69565C5.39392 3.4429 7.73077 1 10.387 1C13.0433 1 15.3801 3.4429 15.3801 6.69565Z" fill="#C9D4FA" stroke="#C9D4FA" stroke-width="2"/>
<mask id="path-2-inside-1" fill="white">
<path fill-rule="evenodd" clip-rule="evenodd" d="M-0.000366211 28.0001H20.7738C20.6977 19.9134 16.0764 13.3914 10.3867 13.3914C4.69708 13.3914 0.0757799 19.9134 -0.000366211 28.0001Z"/>
</mask>
<path fill-rule="evenodd" clip-rule="evenodd" d="M-0.000366211 28.0001H20.7738C20.6977 19.9134 16.0764 13.3914 10.3867 13.3914C4.69708 13.3914 0.0757799 19.9134 -0.000366211 28.0001Z" fill="#C9D4FA"/>
<path d="M-0.000366211 28.0001L-2.00028 27.9812L-2.01929 30.0001H-0.000366211V28.0001ZM20.7738 28.0001V30.0001H22.7927L22.7737 27.9812L20.7738 28.0001ZM-0.000366211 30.0001H20.7738V26.0001H-0.000366211V30.0001ZM10.3867 15.3914C12.4088 15.3914 14.4396 16.5472 16.0548 18.8213C17.6664 21.0903 18.7392 24.3332 18.7739 28.0189L22.7737 27.9812C22.7323 23.5802 21.4564 19.5187 19.3159 16.5051C17.179 13.4965 14.0543 11.3914 10.3867 11.3914V15.3914ZM1.99955 28.0189C2.03425 24.3332 3.10709 21.0903 4.71868 18.8213C6.33388 16.5472 8.36464 15.3914 10.3867 15.3914V11.3914C6.71917 11.3914 3.59445 13.4965 1.45755 16.5051C-0.682953 19.5187 -1.95884 23.5802 -2.00028 27.9812L1.99955 28.0189Z" fill="#C9D4FA" mask="url(#path-2-inside-1)"/>
</svg>
