<svg width="18" height="24" viewBox="0 0 18 24" fill="none" xmlns="http://www.w3.org/2000/svg">
<path d="M13.0401 5.73913C13.0401 8.46361 11.0866 10.4783 8.90318 10.4783C6.71977 10.4783 4.76624 8.46361 4.76624 5.73913C4.76624 3.01465 6.71977 1 8.90318 1C11.0866 1 13.0401 3.01465 13.0401 5.73913Z" fill="#C9D4FA" stroke="#C9D4FA" stroke-width="2"/>
<mask id="path-2-inside-1" fill="white">
<path fill-rule="evenodd" clip-rule="evenodd" d="M-0.000366211 24H17.8061C17.7408 17.0686 13.7797 11.4783 8.90286 11.4783C4.02601 11.4783 0.0649011 17.0686 -0.000366211 24Z"/>
</mask>
<path fill-rule="evenodd" clip-rule="evenodd" d="M-0.000366211 24H17.8061C17.7408 17.0686 13.7797 11.4783 8.90286 11.4783C4.02601 11.4783 0.0649011 17.0686 -0.000366211 24Z" fill="#C9D4FA"/>
<path d="M-0.000366211 24L-2.00028 23.9812L-2.01929 26H-0.000366211V24ZM17.8061 24V26H19.825L19.806 23.9812L17.8061 24ZM-0.000366211 26H17.8061V22H-0.000366211V26ZM8.90286 13.4783C10.5185 13.4783 12.181 14.4012 13.5282 16.298C14.8718 18.1896 15.7769 20.9108 15.8062 24.0188L19.806 23.9812C19.77 20.1578 18.6619 16.6181 16.7894 13.9817C14.9205 11.3505 12.164 9.47827 8.90286 9.47827V13.4783ZM1.99955 24.0188C2.02881 20.9108 2.93388 18.1896 4.27747 16.298C5.62467 14.4012 7.28717 13.4783 8.90286 13.4783V9.47827C5.6417 9.47827 2.88523 11.3505 1.01634 13.9817C-0.856158 16.6181 -1.96428 20.1578 -2.00028 23.9812L1.99955 24.0188Z" fill="#C9D4FA" mask="url(#path-2-inside-1)"/>
</svg>
